<svg width="41" height="48" viewBox="0 0 41 48" fill="none" xmlns="http://www.w3.org/2000/svg">
<path fill-rule="evenodd" clip-rule="evenodd" d="M39 13.7734L25.2609 14.1398L31.8447 2H6C3.79086 2 2 3.79086 2 6V42C2 44.2091 3.79086 46 6 46H35C37.2091 46 39 44.2091 39 42V13.7734Z" fill="#171717"/>
<path d="M39 13.7734H40.5V12.2328L38.96 12.2739L39 13.7734ZM25.2609 14.1398L23.9424 13.4247L22.7038 15.7085L25.3009 15.6393L25.2609 14.1398ZM31.8447 2L33.1633 2.7151L34.3646 0.5H31.8447V2ZM38.96 12.2739L25.2209 12.6403L25.3009 15.6393L39.04 15.2729L38.96 12.2739ZM26.5795 14.8549L33.1633 2.7151L30.5261 1.2849L23.9424 13.4247L26.5795 14.8549ZM6 3.5H31.8447V0.5H6V3.5ZM3.5 6C3.5 4.61929 4.61929 3.5 6 3.5V0.5C2.96243 0.5 0.5 2.96243 0.5 6H3.5ZM3.5 42V6H0.5V42H3.5ZM6 44.5C4.61929 44.5 3.5 43.3807 3.5 42H0.5C0.5 45.0376 2.96244 47.5 6 47.5V44.5ZM35 44.5H6V47.5H35V44.5ZM37.5 42C37.5 43.3807 36.3807 44.5 35 44.5V47.5C38.0376 47.5 40.5 45.0376 40.5 42H37.5ZM37.5 13.7734V42H40.5V13.7734H37.5Z" fill="#171717"/>
</svg>
