<svg width="51" height="56" viewBox="0 0 51 56" fill="none" xmlns="http://www.w3.org/2000/svg">
<path fill-rule="evenodd" clip-rule="evenodd" d="M32.027 53.6915C38.4027 52.9595 43.9614 51.4558 46.2784 49.3166C52.777 43.3166 46.2784 21.3166 46.2784 21.3166C33.8459 8.13894 29.2031 1.88505 24.726 2.0016C20.1999 2.11943 15.8432 8.74835 3.77839 21.3166C3.77839 21.3166 -0.223026 42.3166 3.77845 49.3166C5.26036 51.909 10.5824 53.4042 17.027 53.9545V34.8166H32.027V53.6915Z" fill="#171717"/>
<path d="M46.2784 49.3166L47.296 50.4187L47.296 50.4187L46.2784 49.3166ZM32.027 53.6915H30.527V55.3736L32.1981 55.1817L32.027 53.6915ZM46.2784 21.3166L47.7169 20.8917L47.6154 20.5479L47.3695 20.2872L46.2784 21.3166ZM24.726 2.0016L24.7651 3.50109L24.726 2.0016ZM3.77839 21.3166L2.69628 20.2778L2.38818 20.5988L2.3049 21.0358L3.77839 21.3166ZM3.77845 49.3166L2.4762 50.061L2.4762 50.061L3.77845 49.3166ZM17.027 53.9545L16.8994 55.449L18.527 55.588V53.9545H17.027ZM17.027 34.8166V33.3166H15.527V34.8166H17.027ZM32.027 34.8166H33.527V33.3166H32.027V34.8166ZM45.2609 48.2145C44.3611 49.0452 42.6638 49.8769 40.248 50.5937C37.8782 51.2969 34.9848 51.8421 31.8559 52.2013L32.1981 55.1817C35.4448 54.809 38.5186 54.2362 41.1014 53.4698C43.6382 52.717 45.8787 51.7272 47.296 50.4187L45.2609 48.2145ZM46.2784 21.3166C44.8398 21.7415 44.8398 21.7414 44.8398 21.7413C44.8398 21.7414 44.8398 21.7414 44.8399 21.7416C44.84 21.7419 44.8402 21.7426 44.8404 21.7436C44.841 21.7456 44.842 21.7489 44.8434 21.7536C44.8461 21.7628 44.8503 21.7773 44.8559 21.7968C44.8672 21.8359 44.8843 21.8952 44.9065 21.9736C44.9508 22.1303 45.0157 22.3633 45.0965 22.6634C45.2579 23.2635 45.4824 24.1309 45.7322 25.1916C46.2325 27.3164 46.8303 30.2012 47.2279 33.2599C47.627 36.3307 47.8155 39.513 47.5282 42.254C47.2353 45.0479 46.4778 47.091 45.2609 48.2145L47.296 50.4187C49.3284 48.5422 50.1954 45.5853 50.5118 42.5667C50.8338 39.4952 50.6161 36.0525 50.2029 32.8733C49.7881 29.682 49.1674 26.6918 48.6523 24.5041C48.3944 23.4085 48.162 22.5103 47.9934 21.8839C47.9091 21.5707 47.8408 21.3251 47.7931 21.1567C47.7693 21.0725 47.7506 21.0075 47.7377 20.963C47.7313 20.9407 47.7263 20.9235 47.7228 20.9116C47.721 20.9056 47.7197 20.901 47.7187 20.8976C47.7182 20.896 47.7178 20.8946 47.7175 20.8937C47.7174 20.8932 47.7172 20.8927 47.7172 20.8924C47.717 20.892 47.7169 20.8917 46.2784 21.3166ZM24.7651 3.50109C25.5035 3.48187 26.3464 3.71609 27.4472 4.39433C28.5638 5.08235 29.8583 6.17289 31.4712 7.74719C34.7197 10.918 38.9116 15.6941 45.1873 22.346L47.3695 20.2872C41.2127 13.7615 36.867 8.82177 33.5667 5.60036C31.9051 3.97854 30.4225 2.70386 29.0209 1.84025C27.6034 0.966859 26.1871 0.463055 24.687 0.502107L24.7651 3.50109ZM4.8605 22.3554C7.89098 19.1984 10.4363 16.4156 12.6142 14.0226C14.7997 11.6212 16.5944 9.63552 18.153 8.03753C19.7172 6.43377 20.9773 5.29065 22.0806 4.54428C23.1707 3.80681 24.0151 3.52061 24.7651 3.50109L24.687 0.502107C23.1739 0.541498 21.7764 1.1281 20.3996 2.05945C19.036 2.98191 17.6042 4.30363 16.0054 5.94285C14.4009 7.58786 12.5615 9.62336 10.3955 12.0034C8.22176 14.3918 5.6982 17.1507 2.69628 20.2778L4.8605 22.3554ZM5.08069 48.5722C4.2579 47.1328 3.77168 44.7963 3.5873 41.8934C3.40611 39.0408 3.52584 35.839 3.77289 32.8137C4.01942 29.7947 4.38975 26.9862 4.699 24.9304C4.85349 23.9034 4.99238 23.0666 5.09236 22.4881C5.14234 22.1988 5.18258 21.9743 5.21014 21.823C5.22392 21.7473 5.23454 21.69 5.24162 21.652C5.24516 21.633 5.24781 21.6189 5.24954 21.6098C5.2504 21.6052 5.25103 21.6018 5.25142 21.5998C5.25162 21.5987 5.25176 21.598 5.25183 21.5976C5.25187 21.5974 5.25188 21.5974 5.2519 21.5973C5.2519 21.5973 5.25188 21.5974 3.77839 21.3166C2.3049 21.0358 2.30485 21.0361 2.30479 21.0364C2.30475 21.0367 2.30467 21.0371 2.30458 21.0375C2.30442 21.0384 2.30419 21.0396 2.3039 21.0411C2.30333 21.0441 2.30252 21.0484 2.30147 21.054C2.29938 21.065 2.29636 21.0811 2.29245 21.1021C2.28463 21.144 2.27326 21.2055 2.25871 21.2853C2.22962 21.445 2.18779 21.6785 2.13618 21.9772C2.03297 22.5744 1.89051 23.4329 1.73238 24.4841C1.41642 26.5845 1.03648 29.4635 0.782843 32.5695C0.529722 35.6692 0.399372 39.0299 0.593334 42.0836C0.7841 45.0869 1.29826 48.0004 2.4762 50.061L5.08069 48.5722ZM17.1546 52.4599C13.9974 52.1903 11.1821 51.6936 9.01209 50.977C6.76279 50.2341 5.53102 49.36 5.08069 48.5722L2.4762 50.061C3.50779 51.8656 5.67798 53.0352 8.0713 53.8257C10.5439 54.6423 13.6119 55.1683 16.8994 55.449L17.1546 52.4599ZM15.527 34.8166V53.9545H18.527V34.8166H15.527ZM32.027 33.3166H17.027V36.3166H32.027V33.3166ZM33.527 53.6915V34.8166H30.527V53.6915H33.527Z" fill="#171717"/>
</svg>
